<svg width="67" height="180" viewBox="0 0 67 180" fill="none" xmlns="http://www.w3.org/2000/svg">
<path d="M41.5788 0.86361C46.1932 2.55409 48.9681 2.72053 49.9463 4.11264C53.6094 9.28057 57.6935 14.4094 59.9419 20.344C66.4923 36.0475 67.3797 52.488 65.5312 69.182C62.4385 97.642 52.1086 123.596 38.505 148.582C37.055 151.258 35.8154 153.915 34.3849 156.801C34.4043 157.011 34.6538 157.412 35.1331 158.003C39.6464 156.313 44.3701 154.605 48.9029 153.125C51.3894 152.471 54.3359 152.198 56.9393 152.804C58.4515 153.087 60.7702 155.202 60.9065 156.673C61.0818 158.563 59.8228 161.01 58.7158 162.807C57.7609 163.954 55.8862 164.34 54.2414 164.916C41.9059 169.237 29.6093 173.979 17.0439 178.109C6.33364 181.644 2.42485 178.405 2.06316 167.636C1.66253 156.446 0.840922 145.295 0.249301 134.335C0.148209 130.955 0.448577 127.326 0.519002 123.506C9.72828 126.677 9.72831 126.677 16.0397 160.409C27.9356 144.478 35.295 127.696 41.9842 110.554C48.6733 93.4107 52.5485 75.6814 53.8009 57.1361C54.9949 37.9608 49.762 20.4405 41.5788 0.86361Z" fill="#0D1927"/>
</svg>
