<svg width="504" height="260" viewBox="0 0 504 260" fill="none" xmlns="http://www.w3.org/2000/svg">
<path fill-rule="evenodd" clip-rule="evenodd" d="M64.0562 78.0587L160.5 0V44.5153L94.9791 97.546C101.889 106.498 106 117.721 106 129.904C106 142.087 101.889 153.31 94.9791 162.262L160.5 215.292V259.808L64.0562 181.749C60.4901 182.506 56.7916 182.904 53 182.904C23.7289 182.904 0 159.175 0 129.904C0 100.633 23.7289 76.9038 53 76.9038C56.7916 76.9038 60.4901 77.3019 64.0562 78.0587ZM439.444 78.0587L343 0V44.5153L408.521 97.546C401.611 106.498 397.5 117.721 397.5 129.904C397.5 142.087 401.611 153.31 408.521 162.262L343 215.292V259.808L439.444 181.749C443.01 182.506 446.708 182.904 450.5 182.904C479.771 182.904 503.5 159.175 503.5 129.904C503.5 100.633 479.771 76.9038 450.5 76.9038C446.708 76.9038 443.01 77.3019 439.444 78.0587ZM215 209L305.51 52.2327L280.395 37.7327L189.885 194.5L215 209Z" fill="black"/>
</svg>
