<svg width="1984" height="1093" viewBox="0 0 1984 1093" fill="none" xmlns="http://www.w3.org/2000/svg">
<path fill-rule="evenodd" clip-rule="evenodd" d="M174 0H448V120H294V263H174V0ZM174 830V1093H448V973H294V830H174ZM1705 830V973H1550V1093H1825V830H1705ZM1825 263V0H1550V120H1705V263H1825Z" fill="black"/>
<path fill-rule="evenodd" clip-rule="evenodd" d="M221 647C276.781 647 322 601.781 322 546C322 490.219 276.781 445 221 445C165.219 445 120 490.219 120 546C120 601.781 165.219 647 221 647ZM221 767C343.055 767 442 668.055 442 546C442 423.945 343.055 325 221 325C98.9451 325 0 423.945 0 546C0 668.055 98.9451 767 221 767Z" fill="black"/>
<path fill-rule="evenodd" clip-rule="evenodd" d="M1763 647C1818.78 647 1864 601.781 1864 546C1864 490.219 1818.78 445 1763 445C1707.22 445 1662 490.219 1662 546C1662 601.781 1707.22 647 1763 647ZM1763 767C1885.05 767 1984 668.055 1984 546C1984 423.945 1885.05 325 1763 325C1640.95 325 1542 423.945 1542 546C1542 668.055 1640.95 767 1763 767Z" fill="black"/>
<path fill-rule="evenodd" clip-rule="evenodd" d="M779 0H894V1093H779V0Z" fill="black"/>
<path fill-rule="evenodd" clip-rule="evenodd" d="M1104 0H1219V1093H1104V0Z" fill="black"/>
</svg>
