<svg width="286" height="443" viewBox="0 0 286 443" fill="none" xmlns="http://www.w3.org/2000/svg">
<path d="M87.6503 260.477H26.3583H26.1735C25.5929 250.659 26.0783 240.807 27.6211 231.094V231.094C41.5735 235.282 61.1314 239.656 84.5703 244.522L87.835 245.2C92.8862 246.463 99.1079 245.939 101.849 252.623C102.095 253.208 102.373 254.224 102.711 255.333H102.095L90.915 255.857C90.3774 255.874 89.8524 256.024 89.3866 256.293C88.9209 256.562 88.5288 256.942 88.2454 257.4C87.9619 257.857 87.7958 258.377 87.7618 258.914C87.7279 259.451 87.8271 259.988 88.0507 260.477H87.6503Z" fill="black"/>
<path d="M92.64 225.427C89.7885 227.432 87.5405 230.181 86.1397 233.373C84.7389 236.566 84.2388 240.081 84.6936 243.537V244.276C61.2548 239.41 41.5736 235.036 27.7444 230.847C13.9152 226.659 5.90722 222.932 4.61362 219.02C-5.33478 188.867 16.5948 127.883 28.0832 116.549C34.7668 109.988 50.1976 104.875 66.8296 101.641C67.5784 99.5083 68.8997 97.6223 70.6488 96.1899C70.8855 96.0653 71.1329 95.9622 71.388 95.8819C81.4902 93.8327 91.901 93.8327 102.003 95.8819C102.599 96.0379 103.177 96.2546 103.728 96.5287C104.818 96.9715 105.777 97.6846 106.515 98.6006C107.254 99.5166 107.747 100.606 107.948 101.765C107.948 101.765 139.056 105.276 144.908 112.637C151.93 121.384 164.25 151.537 174.476 197.799L136.068 199.093C133.768 199.192 131.577 200.104 129.885 201.666C128.193 203.228 127.11 205.339 126.828 207.624L120.668 246.186C120.083 240.857 119.682 234.42 114.015 232.726C108.348 231.032 100.925 228.414 92.64 225.427Z" fill="black"/>
<path d="M240.942 410.904H241.496V411.151C243.96 411.705 259.668 420.175 273.066 421.746C279.504 422.516 285.571 426.058 284.154 434.066H213.068V410.75L240.942 410.904Z" fill="black"/>
<path d="M132.988 356.327C134.435 360.177 138.316 376.039 145.308 386.48C148.942 391.808 150.236 398.8 143.213 403.02L96.6747 349.304L113.676 334.52C119.809 342.096 126.391 349.296 133.388 356.08L132.988 356.327Z" fill="black"/>
<path d="M135.236 311.944H30.3005V440.903H185.225V322.046" stroke="black" stroke-width="2.6488" stroke-linejoin="round"/>
<path d="M87.9583 244.061C39.8487 234.143 7.20076 226.197 4.52116 218.127C-5.42724 187.974 16.5024 126.959 27.9908 115.655C34.6744 109.064 50.1051 103.982 66.7371 100.717C67.4859 98.5841 68.8072 96.6981 70.5564 95.2657C72.928 93.8489 91.5928 92.1857 101.911 94.8653C103.365 95.1654 104.7 95.8809 105.755 96.9252C106.811 97.9694 107.54 99.2974 107.855 100.748C107.855 100.748 138.963 104.259 144.815 111.651C151.868 120.429 164.219 149.813 174.506 196.321" stroke="black" stroke-width="2.6488" stroke-linejoin="round"/>
<path d="M27.621 230.109C20.999 275.693 33.9966 297.53 60.115 308.649C64.8332 310.407 69.7626 311.536 74.7758 312.006L135.267 311.759" stroke="black" stroke-width="2.6488" stroke-miterlimit="10"/>
<path d="M234.381 289.09C237.893 305.168 238.509 335.475 241.558 411.921" stroke="black" stroke-width="2.6488" stroke-miterlimit="10"/>
<path d="M233.642 207.225L223.971 261.525C223.641 263.689 222.593 265.68 220.995 267.177C219.398 268.674 217.343 269.59 215.162 269.779L128.121 275.262C126.624 275.284 125.141 274.973 123.779 274.35C122.417 273.727 121.212 272.808 120.25 271.661C119.288 270.513 118.594 269.165 118.219 267.716C117.844 266.266 117.797 264.751 118.081 263.281L126.828 206.701C127.111 204.419 128.195 202.311 129.887 200.754C131.58 199.197 133.77 198.292 136.068 198.2L223.971 195.12C225.448 195.154 226.899 195.511 228.223 196.167C229.547 196.822 230.711 197.76 231.633 198.914C232.555 200.068 233.213 201.41 233.56 202.846C233.907 204.282 233.935 205.777 233.642 207.225Z" stroke="black" stroke-width="2.6488" stroke-miterlimit="10"/>
<path d="M124.179 274.677L89.868 261.063C89.2398 260.746 88.7307 260.235 88.4166 259.606C88.1024 258.976 88.0001 258.262 88.1247 257.569C88.2493 256.877 88.5943 256.243 89.1083 255.763C89.6222 255.282 90.2776 254.981 90.9768 254.903L102.188 254.287" stroke="black" stroke-width="2.6488" stroke-miterlimit="10"/>
<path d="M26.8204 259.46L87.6504 259.584" stroke="black" stroke-width="2.6488" stroke-miterlimit="10"/>
<path d="M87.8663 244.061C92.9175 245.293 99.1391 244.8 101.88 251.484C102.804 253.671 104.252 262.202 108.441 258.783C110.196 257.336 109.549 253.055 109.211 251.022C108.627 247.503 107.428 244.115 105.669 241.012" stroke="black" stroke-width="2.6488" stroke-miterlimit="10" stroke-linecap="round"/>
<path d="M112.937 238.67C115.185 242.736 118.912 260.969 109.549 258.382" stroke="black" stroke-width="2.6488" stroke-miterlimit="10" stroke-linecap="round"/>
<path d="M115.124 256.719C115.124 257.243 118.481 258.444 119.097 256.38" stroke="black" stroke-width="2.6488" stroke-miterlimit="10" stroke-linecap="round"/>
<path d="M145.616 195.397C144.477 188.036 137.393 164.597 133.296 148.55" stroke="white" stroke-width="2.6488" stroke-miterlimit="10" stroke-linecap="square"/>
<path d="M83.9238 243.352C83.9238 233.557 87.7738 227.674 93.441 224.44" stroke="white" stroke-width="2.6488" stroke-miterlimit="10"/>
<path d="M53.5549 269.47C54.0477 286.349 39.0481 294.665 23.7405 295.435" stroke="black" stroke-width="2.6488" stroke-miterlimit="10" stroke-linecap="round"/>
<path d="M73.4822 29.5081C74.437 22.5165 75.6998 12.1677 80.5662 6.74689C96.1818 -10.6859 114.261 24.8265 117.187 36.2533C119.898 46.9409 104.867 70.9341 100.525 72.6589C94.0258 75.2461 84.755 69.1169 81.7982 63.0493" stroke="black" stroke-width="2.6488" stroke-miterlimit="10" stroke-linecap="round"/>
<path d="M71.3876 96.0055C70.0378 78.3559 70.182 60.6239 71.8188 42.9987" stroke="black" stroke-width="2.6488" stroke-miterlimit="10"/>
<path d="M98.7689 72.3503C100.494 79.6499 100.863 88.9207 103.912 95.5119" stroke="black" stroke-width="2.6488" stroke-miterlimit="10"/>
<path d="M76.0079 32.7118C67.3839 20.0222 61.0391 36.7158 64.3347 41.0894C66.4907 43.8922 71.0183 43.3686 73.5747 42.0442" stroke="black" stroke-width="2.6488" stroke-miterlimit="10" stroke-linecap="round"/>
<path d="M106.623 14.6933C107.67 14.6933 132.403 9.76531 128.922 2.98931C124.949 -4.77229 77.3324 19.7137 74.468 21.1305" stroke="black" stroke-width="2.6488" stroke-miterlimit="10"/>
<path d="M71.9728 35.2054C70.6594 36.4132 68.9519 37.1028 67.168 37.1458" stroke="black" stroke-width="2.6488" stroke-miterlimit="10" stroke-linecap="round"/>
<path d="M91.5616 44.6308C92.2761 44.6308 92.8552 44.0516 92.8552 43.3372C92.8552 42.6227 92.2761 42.0436 91.5616 42.0436C90.8472 42.0436 90.268 42.6227 90.268 43.3372C90.268 44.0516 90.8472 44.6308 91.5616 44.6308Z" fill="black"/>
<path d="M107.147 44.6308C107.861 44.6308 108.44 44.0516 108.44 43.3372C108.44 42.6227 107.861 42.0436 107.147 42.0436C106.432 42.0436 105.853 42.6227 105.853 43.3372C105.853 44.0516 106.432 44.6308 107.147 44.6308Z" fill="black"/>
<path d="M102.188 39.6104C100.679 42.6904 102.435 47.8032 103.02 51.0988C103.389 53.3472 103.975 57.7208 99.3854 56.2732" stroke="black" stroke-width="2.6488" stroke-miterlimit="10" stroke-linecap="round"/>
<path d="M240.942 410.904H213.222C207.609 379.567 200.184 348.581 190.985 318.104" stroke="black" stroke-width="2.6488" stroke-miterlimit="10"/>
<path d="M241.558 411.12C244.022 411.675 259.73 420.145 273.128 421.715C279.596 422.485 285.694 426.089 284.216 434.313L213.099 434.651" stroke="black" stroke-width="2.6488" stroke-linecap="round" stroke-linejoin="round"/>
<path d="M213.037 440.442H284.339V434.59H213.037V440.442Z" stroke="black" stroke-width="2.6488" stroke-linecap="round" stroke-linejoin="round"/>
<path d="M213.068 410.842V434.096" stroke="black" stroke-width="2.6488" stroke-miterlimit="10"/>
<path d="M133.912 356.85C135.206 360.824 138.594 376.439 145.493 386.511C148.819 391.408 150.205 397.63 144.939 401.911C144.517 402.258 143.977 402.429 143.432 402.389C142.888 402.349 142.379 402.1 142.013 401.695L97.6914 351.214C97.3332 350.799 97.1519 350.26 97.1864 349.713C97.221 349.166 97.4686 348.655 97.8762 348.288L113.061 335.29" fill="black"/>
<path d="M133.912 356.85C135.206 360.824 138.594 376.439 145.493 386.511C148.819 391.408 150.205 397.63 144.939 401.911C144.517 402.258 143.977 402.429 143.432 402.389C142.888 402.349 142.379 402.1 142.013 401.695L97.6914 351.214C97.3332 350.799 97.1519 350.26 97.1864 349.713C97.221 349.166 97.4686 348.655 97.8762 348.288L113.061 335.29" stroke="black" stroke-width="2.6488" stroke-miterlimit="10"/>
<path d="M86.788 58.4287C87.3116 62.7099 93.5024 62.7099 94.6112 61.5087" stroke="black" stroke-width="2.6488" stroke-miterlimit="10" stroke-linecap="round"/>
<path d="M48.1954 149.659C41.635 170.356 33.4422 196.505 35.1054 199.739C36.7686 202.973 68.6774 215.139 93.6254 224.102" stroke="white" stroke-width="2.6488" stroke-miterlimit="10" stroke-linecap="round"/>
<path d="M84.2005 242.306C59.1601 238.825 39.2941 234.852 24.1097 231.31" stroke="white" stroke-width="2.6488" stroke-miterlimit="10" stroke-linecap="square"/>
<path d="M227.082 241.042C228.746 241.566 230.378 242.151 232.01 242.767C248.889 249.204 254.772 270.672 240.542 283.484C229.762 293.186 138.902 353.062 133.173 355.988L113.338 334.736C113.338 334.736 155.195 290.507 173.028 272.674" stroke="black" stroke-width="2.6488" stroke-miterlimit="10"/>
<path d="M102.188 39.6107C102.188 39.6107 106.962 36.5307 109.703 39.6107" stroke="black" stroke-width="2.6488" stroke-miterlimit="10" stroke-linecap="round"/>
<path d="M87.4655 39.6109C88.6265 39.0088 89.9152 38.6945 91.2231 38.6945C92.5309 38.6945 93.8196 39.0088 94.9807 39.6109" stroke="black" stroke-width="2.6488" stroke-linecap="round" stroke-linejoin="round"/>
<path d="M92.2467 353.144L139.053 406.932L143.468 403.09L96.6613 349.302L92.2467 353.144Z" stroke="black" stroke-width="2.6488" stroke-linecap="round" stroke-linejoin="round"/>
</svg>
