<svg width="253" height="514" viewBox="0 0 253 514" fill="none" xmlns="http://www.w3.org/2000/svg">
<path d="M149.861 159.244C155.374 196.02 162.828 250.597 163.167 268.4H161.627L44.4021 268.615H42.2461C42.8929 256.85 43.8477 255.772 44.6485 238.308L72.1529 239.694C57.4613 237.784 36.8253 227.959 21.7641 215.331C10.7685 206.091 2.69888 195.434 2.05208 185.27C1.49768 176.831 5.47089 170.209 9.13609 162.663C13.7253 153.146 40.3673 118.465 46.8661 113.106C54.3813 106.946 79.4525 103.25 79.4525 103.25C80.4689 100.724 80.9925 98.4452 83.4565 96.936C83.6128 96.8472 83.778 96.7749 83.9493 96.7204C94.1791 94.4432 104.768 94.2965 115.057 96.2892C115.513 96.4099 115.949 96.5967 116.351 96.8436C117.537 97.4901 118.554 98.4071 119.319 99.5202C120.084 100.633 120.576 101.911 120.755 103.25C120.755 103.25 135.94 102.665 145.087 107.654C158.158 115.441 170.444 124.477 181.77 134.635C182.192 122.299 181.739 109.948 180.415 97.6752L195.815 96.5356H196.246C201.821 115.508 214.11 160.63 206.872 167.807C201.421 173.382 154.512 160.846 149.861 159.244ZM58.7549 157.982C57.2765 159.522 55.6749 161.062 54.3813 162.663C47.8837 169.651 41.8153 177.025 36.2093 184.747C30.3881 194.51 72.3069 220.105 82.4093 222.538C82.4093 222.538 82.4093 223.247 82.4093 224.386C82.1937 228.668 81.3929 238.986 78.6209 239.786C80.4689 242.22 93.2201 251.121 98.0865 251.922C105.201 253.154 113.948 246.131 119.246 241.819C122.3 241.979 125.293 240.92 127.568 238.876C129.843 236.832 131.214 233.97 131.381 230.916L134.246 173.258C134.388 170.201 133.315 167.212 131.26 164.944C129.206 162.676 126.337 161.313 123.281 161.154L58.7549 157.982Z" fill="black"/>
<path d="M155.22 494.225C161.688 494.964 167.787 498.568 166.277 506.791V506.73H116.474C117.86 498.629 111.792 495.057 105.355 494.41C102.109 493.993 98.9051 493.303 95.7761 492.346V491.946C95.7761 491.391 95.7761 488.496 95.7761 483.722H123.25C125.745 484.123 141.791 492.623 155.22 494.225Z" fill="black"/>
<path d="M105.355 494.226C111.793 494.965 117.86 498.538 116.474 506.546V506.73H45.6342C45.6342 504.574 45.6341 496.258 45.4493 483.63H73.6929C75.5717 484.031 85.4893 489.144 96.0537 492.193C99.0933 493.124 102.204 493.804 105.355 494.226Z" fill="black"/>
<path d="M223.196 14.7305H174.686C171.557 14.7305 168.557 15.9733 166.344 18.1856C164.132 20.3978 162.889 23.3983 162.889 26.5269V27.7589C162.889 30.8875 164.132 33.8879 166.344 36.1002C168.557 38.3124 171.557 39.5553 174.686 39.5553H223.196C224.745 39.5553 226.279 39.2501 227.71 38.6573C229.141 38.0645 230.442 37.1956 231.537 36.1002C232.633 35.0048 233.501 33.7044 234.094 32.2732C234.687 30.8419 234.992 29.308 234.992 27.7589V26.5269C234.992 24.9777 234.687 23.4438 234.094 22.0126C233.501 20.5814 232.633 19.2809 231.537 18.1856C230.442 17.0902 229.141 16.2212 227.71 15.6284C226.279 15.0356 224.745 14.7305 223.196 14.7305ZM221.317 35.3049C219.697 35.3049 218.113 34.8244 216.765 33.9241C215.418 33.0239 214.368 31.7444 213.748 30.2473C213.128 28.7503 212.965 27.103 213.282 25.5137C213.598 23.9245 214.378 22.4647 215.524 21.3189C216.67 20.1731 218.129 19.3928 219.719 19.0767C221.308 18.7606 222.955 18.9228 224.452 19.5429C225.949 20.163 227.229 21.2131 228.129 22.5604C229.029 23.9077 229.51 25.4917 229.51 27.1121C229.502 29.2824 228.636 31.3616 227.101 32.8963C225.567 34.431 223.487 35.2968 221.317 35.3049Z" fill="black" stroke="black" stroke-width="2.6488" stroke-linecap="round" stroke-linejoin="round"/>
<path d="M121.125 41.0341C121.105 41.346 120.972 41.64 120.752 41.8619C120.532 42.0837 120.239 42.2184 119.927 42.2409C119.616 42.2634 119.306 42.1723 119.056 41.9845C118.807 41.7966 118.633 41.5246 118.569 41.2189C118.543 40.8805 118.651 40.5456 118.87 40.2863C119.089 40.0271 119.401 39.8642 119.739 39.8329C119.909 39.8203 120.08 39.8414 120.241 39.8951C120.403 39.9487 120.553 40.0338 120.682 40.1454C120.81 40.257 120.916 40.393 120.992 40.5455C121.068 40.698 121.113 40.864 121.125 41.0341Z" fill="black"/>
<path d="M104.215 41.4651C104.233 41.8065 104.117 42.1414 103.893 42.3997C103.67 42.658 103.354 42.8198 103.014 42.8511C102.676 42.8681 102.345 42.7518 102.091 42.5272C101.838 42.3026 101.683 41.9877 101.659 41.6499C101.642 41.4832 101.659 41.3147 101.71 41.1548C101.76 40.995 101.843 40.8471 101.952 40.7202C102.062 40.5934 102.196 40.4902 102.347 40.417C102.498 40.3439 102.662 40.3023 102.829 40.2947C103.168 40.269 103.503 40.3773 103.762 40.5963C104.021 40.8152 104.184 41.1272 104.215 41.4651Z" fill="black"/>
<path d="M73.0455 144.276C68.0073 148.549 63.2347 153.126 58.7543 157.982C57.2759 159.522 55.6743 161.062 54.3807 162.663C47.8831 169.651 41.8147 177.025 36.2087 184.747C30.3875 194.51 72.3063 220.105 82.4087 222.538C82.4087 222.538 82.4087 223.247 82.4087 224.386C82.1931 228.668 81.3923 238.986 78.6203 239.786H78.2815C76.2849 239.83 74.2878 239.728 72.3063 239.478C57.6147 237.569 36.9787 227.744 21.9175 215.116C10.9219 205.876 2.85232 195.219 2.20552 185.055C1.65112 176.616 5.62432 169.994 9.28952 162.448C13.8787 152.93 40.5207 118.25 47.0195 112.89C54.3807 106.946 79.4519 103.25 79.4519 103.25C80.4683 100.724 80.9919 98.4452 83.4559 96.936C83.6123 96.8472 83.7774 96.7749 83.9487 96.7204C94.1786 94.4432 104.768 94.2965 115.057 96.2892C115.513 96.4099 115.948 96.5967 116.35 96.8436C117.536 97.4901 118.553 98.4071 119.318 99.5202C120.084 100.633 120.576 101.911 120.755 103.25C120.755 103.25 135.939 102.665 145.087 107.654C158.158 115.441 170.443 124.477 181.77 134.635C183.618 136.237 185.435 137.715 187.221 139.502" stroke="black" stroke-width="2.6488" stroke-linecap="round" stroke-linejoin="round"/>
<path d="M119.246 241.85C113.948 246.162 105.201 253.185 98.0864 251.953C93.22 251.152 80.4688 242.251 78.6208 239.818C78.5254 239.693 78.4429 239.559 78.3744 239.417" stroke="black" stroke-width="2.6488" stroke-miterlimit="10"/>
<path d="M44.6485 238.308C43.8477 255.772 42.8929 256.788 42.2461 268.616H44.4021L161.627 268.4H163.167C162.828 250.598 155.374 196.02 149.861 159.245C148.444 149.851 147.182 141.627 146.165 135.467" stroke="black" stroke-width="2.6488" stroke-linecap="round" stroke-linejoin="round"/>
<path d="M149.584 159.152H149.861C154.512 160.753 201.42 173.289 206.995 167.745C214.233 160.569 201.944 115.385 196.369 96.4739H196.061L180.661 97.6135C181.985 109.886 182.438 122.237 182.016 134.573" stroke="black" stroke-width="2.6488" stroke-miterlimit="10"/>
<path d="M118.476 241.851H118.137C112.501 242.128 102.429 242.159 99.4109 239.51C97.5629 237.878 97.4704 231.071 100.55 229.747C102.676 228.823 106.957 227.375 108.466 226.482C109.061 226.191 109.546 225.716 109.85 225.128C110.154 224.54 110.26 223.87 110.153 223.216C110.046 222.563 109.731 221.962 109.255 221.501C108.779 221.041 108.168 220.746 107.511 220.661C105.124 220.446 102.722 220.446 100.335 220.661C95.7148 221.215 88.4461 225.743 82.3477 224.387" stroke="black" stroke-width="2.6488" stroke-miterlimit="10"/>
<path d="M86.0436 30.0394C86.4132 27.4522 86.8136 24.403 87.3988 21.323C88.0936 16.2332 90.0643 11.4018 93.1276 7.27817C100.181 -0.606629 107.758 2.35017 114.195 8.97217C116.042 10.8858 117.731 12.9459 119.246 15.1322C123.851 21.7262 127.395 29.0011 129.749 36.6922C132.459 47.3798 117.429 71.373 113.086 73.0978C112.568 73.3022 112.032 73.4569 111.484 73.5598C105.14 74.7302 97.07 69.063 94.3596 63.4882" stroke="black" stroke-width="2.6488" stroke-miterlimit="10" stroke-linecap="round"/>
<path d="M83.857 96.5356C83.857 78.2712 82.8714 61.7316 84.4114 43.5288" stroke="black" stroke-width="2.6488" stroke-miterlimit="10"/>
<path d="M111.33 72.9121C111.397 73.1551 111.448 73.402 111.484 73.6513C113.055 81.0433 113.486 90.1909 116.381 96.7821" stroke="black" stroke-width="2.6488" stroke-miterlimit="10"/>
<path d="M88.5687 33.242C87.8172 32.1092 86.9274 31.0746 85.9199 30.162C78.7127 24.002 73.9387 37.708 76.9263 41.6196C77.8607 42.5894 79.0608 43.2617 80.3758 43.5521C81.6909 43.8425 83.0624 43.7381 84.3183 43.252C84.9103 43.1014 85.4798 42.8736 86.0123 42.5744" stroke="black" stroke-width="2.6488" stroke-miterlimit="10" stroke-linecap="round"/>
<path d="M119.061 15.2247C120.786 15.0399 144.718 10.2043 141.299 3.52068C139.328 -0.329316 126.669 3.73628 114.01 8.97228C101.998 13.9619 89.9859 19.9987 87.2139 21.2923L86.7827 21.5079" stroke="black" stroke-width="2.6488" stroke-miterlimit="10"/>
<path d="M105.263 34.5965C104.004 34.2117 102.672 34.1312 101.377 34.3614C100.081 34.5916 98.8583 35.1261 97.8093 35.9209" stroke="black" stroke-width="2.6488" stroke-miterlimit="10" stroke-linecap="round"/>
<path d="M84.5651 35.7371C83.2501 36.9385 81.5412 37.6177 79.7603 37.6467" stroke="black" stroke-width="2.6488" stroke-miterlimit="10" stroke-linecap="round"/>
<path d="M122.141 35.0585C120.139 34.1345 115.519 34.4117 114.688 36.4137C113.363 39.4937 115.335 46.3313 116.197 50.1813C116.751 52.7993 117.675 57.9121 113.117 56.5261" stroke="black" stroke-width="2.6488" stroke-miterlimit="10" stroke-linecap="round"/>
<path d="M106.741 63.2099C107.289 63.7973 107.962 64.2554 108.709 64.5511C109.456 64.8468 110.26 64.9726 111.061 64.9196C111.863 64.8665 112.643 64.6358 113.345 64.2443C114.047 63.8527 114.652 63.31 115.119 62.6555" stroke="black" stroke-width="2.6488" stroke-miterlimit="10" stroke-linecap="round"/>
<path d="M95.0061 408.91C95.3141 441.774 95.7145 470.11 95.8377 483.539C95.8377 488.313 95.8377 491.208 95.8377 491.762" stroke="black" stroke-width="2.6488" stroke-miterlimit="10"/>
<path d="M64.3912 278.44C64.7608 291.746 55.5516 299.723 44.1248 302.896C40.9988 303.757 37.7855 304.264 34.546 304.405" stroke="black" stroke-width="2.6488" stroke-miterlimit="10" stroke-linecap="round"/>
<path d="M116.289 506.73L45.4488 507.069C45.4488 507.069 45.4488 506.823 45.4488 506.576C45.4488 504.42 45.4488 496.104 45.264 483.476C44.8636 445.161 43.9396 367.237 44.2168 302.834C44.2168 290.822 44.2168 279.272 44.494 268.554" stroke="black" stroke-width="2.6488" stroke-linecap="round" stroke-linejoin="round"/>
<path d="M112.193 293.995C110.502 332.794 104.7 371.305 94.8829 408.879C88.3841 435.09 80.8381 460.1 73.5693 483.231V483.539C75.4481 483.939 85.3657 489.052 95.9301 492.101C99.0591 493.058 102.263 493.748 105.509 494.165C111.946 494.904 118.014 498.477 116.628 506.485C116.616 506.535 116.616 506.588 116.628 506.639" stroke="black" stroke-width="2.6488" stroke-linecap="round" stroke-linejoin="round"/>
<path d="M161.627 268.985C159.717 353.963 141.114 426.989 123.311 483.538C125.806 484.062 141.791 492.563 155.282 494.164C161.75 494.903 167.848 498.507 166.339 506.731H115.981" stroke="black" stroke-width="2.6488" stroke-linecap="round" stroke-linejoin="round"/>
<path d="M124.451 483.539H123.312H96.3002" stroke="black" stroke-width="2.6488" stroke-miterlimit="10"/>
<path d="M73.4464 483.539H73.4156H45.2952" stroke="black" stroke-width="2.6488" stroke-miterlimit="10"/>
<path d="M45.3568 506.639H45.2028V512.491H116.289V506.823V506.639H45.3568Z" stroke="black" stroke-width="2.6488" stroke-linecap="round" stroke-linejoin="round"/>
<path d="M116.412 506.823V512.491H166.154V506.823V506.639H116.473H116.412V506.823Z" stroke="black" stroke-width="2.6488" stroke-linecap="round" stroke-linejoin="round"/>
<path d="M72.1832 239.602L44.6788 238.216L32.174 237.6C29.1179 237.44 26.2491 236.078 24.1945 233.81C22.14 231.541 21.0667 228.552 21.2092 225.495L21.7328 215.301" stroke="black" stroke-width="2.6488" stroke-miterlimit="10"/>
<path d="M58.2927 157.951H58.7547L123.127 161.031C126.183 161.19 129.052 162.553 131.106 164.821C133.161 167.089 134.234 170.078 134.092 173.135L131.381 230.916C131.303 232.447 130.921 233.948 130.256 235.329C129.592 236.711 128.66 237.947 127.513 238.965C126.366 239.983 125.028 240.762 123.577 241.257C122.126 241.753 120.591 241.954 119.061 241.85V241.85H118.076H117.306" stroke="black" stroke-width="2.6488" stroke-miterlimit="10"/>
<path d="M54.3811 162.694L119.061 165.774C121.777 165.902 124.331 167.102 126.161 169.112C127.992 171.122 128.95 173.776 128.825 176.492L126.33 227.497L125.714 239.478" stroke="black" stroke-width="2.6488" stroke-miterlimit="10"/>
<path d="M180.168 97.6751C174.778 97.0283 165.754 83.4763 175.333 78.1479C176.568 77.4966 177.883 77.0099 179.244 76.7003C180.138 76.5155 181.277 76.2075 182.324 76.0227C184.881 75.5915 187.714 75.6531 188.669 78.0247C188.994 78.6019 189.08 79.2837 188.907 79.9232C188.734 80.5627 188.317 81.1087 187.745 81.4435C186.484 82.0213 185.161 82.4553 183.803 82.7371C182.14 83.1067 180.723 84.3695 181.216 84.4619C182.2 84.7408 183.104 85.2491 183.853 85.9451C184.603 86.6412 185.177 87.5051 185.528 88.4659C185.859 89.1481 186.128 89.8595 186.328 90.5911" stroke="black" stroke-width="2.6488" stroke-miterlimit="10" stroke-linecap="round"/>
<path d="M175.086 77.7478C173.792 73.9594 168.741 51.7526 173.176 50.6746C177.612 49.5966 178.228 58.5902 180.753 69.1546C181.246 71.2182 181.77 73.3742 182.416 75.5302" stroke="black" stroke-width="2.6488" stroke-miterlimit="10" stroke-linecap="round"/>
<path d="M180.661 69.3701C180.322 65.3045 186.821 64.8733 187.991 67.8609C188.464 68.9495 188.855 70.0716 189.162 71.2181C190.825 76.8545 191.01 83.1685 189.347 86.3717C189.099 87.0269 188.649 87.5862 188.062 87.9683C187.475 88.3504 186.781 88.5356 186.082 88.4969" stroke="black" stroke-width="2.6488" stroke-miterlimit="10" stroke-linecap="round"/>
<path d="M189.315 71.1266C188.915 66.8454 194.49 65.5826 195.475 69.4326C197.631 77.8718 197.262 83.4774 195.814 86.0954C195.581 86.5301 195.267 86.9168 194.89 87.235C194.13 87.7569 193.194 87.956 192.288 87.7885C191.381 87.6211 190.578 87.1008 190.055 86.3418" stroke="black" stroke-width="2.6488" stroke-miterlimit="10" stroke-linecap="round"/>
<path d="M196.061 96.5058C196.969 93.116 196.969 89.5468 196.061 86.157" stroke="black" stroke-width="2.6488" stroke-miterlimit="10" stroke-linecap="round"/>
<path d="M41.5065 192.847C53.8265 206.091 76.4338 220.013 83.795 221.799C83.795 221.799 83.3945 241.388 79.1133 241.573C66.7933 242.066 47.1429 235.136 30.3569 224.571" stroke="white" stroke-width="2.6488" stroke-linecap="round" stroke-linejoin="round"/>
<path d="M74.3394 483.784C78.6514 485.416 92.8194 492.654 105.139 494.102C111.607 494.841 116.32 497.182 116.227 507.531" stroke="white" stroke-width="2.6488" stroke-linejoin="round"/>
<path d="M234.191 11.4672L240.012 3.89038" stroke="black" stroke-width="2.6488" stroke-linecap="round" stroke-linejoin="round"/>
<path d="M240.474 18.5809L248.39 14.3921" stroke="black" stroke-width="2.6488" stroke-linecap="round" stroke-linejoin="round"/>
<path d="M242.23 26.6204H251.224" stroke="black" stroke-width="2.6488" stroke-linecap="round" stroke-linejoin="round"/>
</svg>
