<svg width="203" height="531" viewBox="0 0 203 531" fill="none" xmlns="http://www.w3.org/2000/svg">
<path d="M94.4307 523.566V523.72C92.9215 515.496 99.0198 511.893 105.488 511.123C108.741 510.705 111.954 510.025 115.097 509.09C125.662 506.01 135.549 500.928 137.458 500.497H165.579C165.425 513.094 165.363 521.41 165.394 523.597L94.4307 523.566Z" fill="black"/>
<path d="M94.3379 523.875H44.4727C43.0251 515.682 49.1235 512.079 55.5607 511.339C68.9587 509.769 85.0363 501.237 87.5311 500.713H114.943C114.943 505.487 114.943 508.352 114.943 508.937V509.337C111.8 510.273 108.586 510.953 105.333 511.37C98.9579 512.048 92.8287 515.621 94.3379 523.875Z" fill="black"/>
<path d="M53.2203 223.482C56.3004 203.031 59.3804 182.857 61.5056 171.122C61.5056 171.122 38.9908 183.688 36.65 194.16C35.7876 198.01 48.3848 217.199 53.1896 223.39L53.2203 223.482ZM144.696 199.704C141.616 200.166 138.536 200.474 135.672 200.69C134.862 199.659 133.814 198.84 132.617 198.304C131.421 197.767 130.112 197.529 128.804 197.61C127.412 197.505 126.017 197.775 124.766 198.392C123.514 199.01 122.452 199.952 121.689 201.121C108.014 201.121 100.96 202.476 98.7428 203.77C93.8764 206.604 91.1044 209.653 91.2584 215.382C91.421 220.458 92.8503 225.413 95.4164 229.796C95.7873 230.377 96.21 230.923 96.6792 231.428C98.5203 233.344 101.045 234.451 103.702 234.508C104.81 234.508 108.476 233.831 108.907 232.414C109.338 230.997 108.168 229.734 107.521 229.334C106.135 228.164 104.441 228.564 102.962 228.348C99.3279 225.268 111.309 220.032 123.321 220.156H126.186H133.454C136.935 220.156 140.631 219.848 144.45 219.54C143.135 216.409 142.458 213.048 142.458 209.653C142.458 206.258 143.135 202.896 144.45 199.766L144.696 199.704ZM160.959 195.269C162.068 194.701 163.103 193.998 164.039 193.175C170.753 187.015 170.199 177.313 159.018 168.812C159.018 168.812 159.85 182.58 160.774 195.023L160.959 195.269ZM162.406 217.168C164.501 245.689 167.088 278.922 167.427 284.435L46.1979 284.712C46.1979 279.168 47.2452 269.497 48.6312 257.916C49.8324 247.691 51.4032 235.987 53.0356 224.344H52.7276C47.8529 228.56 44.3106 234.104 42.5328 240.299C42.3655 241.996 42.4485 243.708 42.7791 245.381H42.5328C20.2336 229.642 6.40436 207.805 2.33876 192.158C-2.28124 174.541 41.7011 140.876 52.2347 133.638C63.908 125.63 89.7184 121.688 89.7184 121.688C90.7348 119.132 91.2584 116.822 93.7224 115.312L94.3076 115.066C105.08 113.463 116.03 113.463 126.802 115.066H127.14C129.635 115.528 131.175 119.686 131.021 121.78C131.021 121.78 158.002 123.567 164.655 127.324C173.556 132.406 208.699 177.652 199.644 196.748C194.315 207.959 178.915 214.026 162.499 217.168H162.406Z" fill="black"/>
<path d="M131.698 207.805C131.467 212.187 132.181 216.567 133.792 220.649" stroke="black" stroke-width="2.6488" stroke-miterlimit="10"/>
<path d="M124.43 207.312C124.128 211.905 124.832 216.509 126.493 220.802" stroke="black" stroke-width="2.6488" stroke-miterlimit="10"/>
<path d="M144.173 219.447C138.013 219.786 128.003 220.309 123.414 220.217" stroke="black" stroke-width="2.6488" stroke-linejoin="round"/>
<path d="M115.775 425.992C115.375 470.467 114.759 506.688 114.913 508.844" stroke="black" stroke-width="2.6488" stroke-miterlimit="10"/>
<path d="M162.498 217.322C164.593 245.842 167.18 279.076 167.519 284.589L46.2899 284.866C46.7211 265.739 56.7311 197.178 61.6899 171.245C61.6899 171.245 39.0212 183.78 36.6804 194.252C35.818 198.102 48.5692 217.291 53.374 223.482" stroke="black" stroke-width="2.6488" stroke-linejoin="round"/>
<path d="M48.8464 257.855C47.07 259.811 44.7772 261.224 42.2323 261.932C39.6873 262.641 36.994 262.616 34.4628 261.859C30.5512 260.381 28.8264 258.348 31.3828 255.422C33.9392 252.496 37.2656 254.775 40.284 253.944C45.3352 252.527 41.67 244.211 42.4708 240.423C44.2486 234.228 47.7909 228.684 52.6656 224.468" stroke="black" stroke-width="2.6488" stroke-miterlimit="10"/>
<path d="M159.234 171.369C159.234 169.768 159.234 168.813 159.234 168.813C170.291 177.314 170.968 187.016 164.223 193.176C160.25 196.81 144.85 199.767 144.85 199.767C143.481 202.857 142.743 206.19 142.679 209.57C142.616 212.95 143.228 216.308 144.48 219.448C166.934 217.908 192.251 212.61 199.92 196.748C208.976 177.652 173.833 132.315 164.901 127.233C158.248 123.475 131.267 121.689 131.267 121.689C131.267 119.594 129.881 115.529 127.386 114.974C116.606 112.942 96.34 113.866 93.9684 115.313C91.5968 116.761 90.8884 119.132 89.9644 121.689C89.9644 121.689 64.154 125.631 52.4808 133.639C41.9472 140.877 -2.03515 174.542 2.58485 192.159C6.68125 207.806 20.5105 229.643 42.8404 245.536" stroke="black" stroke-width="2.6488" stroke-linejoin="round"/>
<path d="M160.835 195.023C160.219 186.861 159.541 176.205 159.203 171.153" stroke="black" stroke-width="2.6488" stroke-linejoin="round"/>
<path d="M121.934 201.122C108.105 201.122 100.99 202.477 98.742 203.77C93.8756 206.604 91.1036 209.653 91.2576 215.382C91.3471 221.218 93.2765 226.877 96.7708 231.552C98.6119 233.467 101.137 234.575 103.793 234.632C104.902 234.632 108.567 233.954 108.998 232.538C109.43 231.121 108.259 229.858 107.612 229.458C106.226 228.287 104.532 228.688 103.054 228.472C99.3887 225.392 111.586 220.094 123.721 220.31" stroke="black" stroke-width="2.6488" stroke-miterlimit="10"/>
<path d="M128.803 207.744C132.919 207.744 136.257 205.469 136.257 202.662C136.257 199.855 132.919 197.58 128.803 197.58C124.686 197.58 121.349 199.855 121.349 202.662C121.349 205.469 124.686 207.744 128.803 207.744Z" stroke="black" stroke-width="2.6488" stroke-miterlimit="10"/>
<path d="M146.39 295.646C145.897 312.556 160.927 320.872 176.235 321.642" stroke="black" stroke-width="2.6488" stroke-miterlimit="10" stroke-linecap="round"/>
<path d="M98.5883 311.046C100.652 378.375 119.779 444.842 137.212 500.282V500.651C134.748 501.175 118.732 509.706 105.241 511.277C98.8039 512.047 92.6747 515.62 94.1839 523.874L165.301 524.182C165.024 520.178 167.395 374.618 166.194 285.513" stroke="black" stroke-width="2.6488" stroke-linecap="round" stroke-linejoin="round"/>
<path d="M49.1548 286.037C51.0644 371.045 69.6676 444.041 87.47 500.62C84.9752 501.144 68.99 509.675 55.4996 511.246C49.0316 512.016 42.9332 515.589 44.4424 523.843H94.9544" stroke="black" stroke-width="2.6488" stroke-linecap="round" stroke-linejoin="round"/>
<path d="M96.4634 49.0616C97.4182 42.07 98.681 31.752 103.547 26.3312C119.163 8.8676 137.243 44.4108 140.169 55.8376C142.879 66.4944 127.849 90.5184 123.506 92.2124C117.007 94.8304 107.736 88.6704 104.779 82.6028" stroke="black" stroke-width="2.6488" stroke-miterlimit="10" stroke-linecap="round"/>
<path d="M94.2764 115.559C94.2764 97.325 93.2908 80.7546 94.8 62.5518" stroke="black" stroke-width="2.6488" stroke-miterlimit="10"/>
<path d="M121.75 91.9351C123.475 98.9883 123.844 107.951 126.894 114.327" stroke="black" stroke-width="2.6488" stroke-miterlimit="10"/>
<path d="M98.9893 52.326C90.3653 39.6364 84.0204 56.2992 87.316 60.6728C88.5227 61.8493 90.0897 62.5861 91.7655 62.7648C93.4412 62.9436 95.1284 62.5539 96.556 61.6584" stroke="black" stroke-width="2.6488" stroke-miterlimit="10" stroke-linecap="round"/>
<path d="M129.604 34.2464C130.651 34.2464 155.384 29.3492 151.903 22.5424C147.93 14.8116 100.313 39.2668 97.3567 40.5604" stroke="black" stroke-width="2.6488" stroke-miterlimit="10"/>
<path d="M116.453 57.9629C115.242 57.4523 113.928 57.2336 112.617 57.3245C111.306 57.4155 110.035 57.8135 108.907 58.4865" stroke="black" stroke-width="2.6488" stroke-miterlimit="10" stroke-linecap="round"/>
<path d="M132.9 57.9632C131.684 57.4524 130.365 57.2336 129.049 57.3245C127.733 57.4155 126.457 57.8135 125.323 58.4868" stroke="black" stroke-width="2.6488" stroke-miterlimit="10" stroke-linecap="round"/>
<path d="M120.795 85.097C122.766 82.7254 126.955 84.635 128.926 85.8978" stroke="black" stroke-width="2.6488" stroke-linecap="round" stroke-linejoin="round"/>
<path d="M94.9542 54.76C93.6407 55.9678 91.9333 56.6573 90.1494 56.7004" stroke="black" stroke-width="2.6488" stroke-miterlimit="10" stroke-linecap="round"/>
<path d="M113.034 63.7222C113.748 63.7222 114.327 63.143 114.327 62.4286C114.327 61.7142 113.748 61.135 113.034 61.135C112.319 61.135 111.74 61.7142 111.74 62.4286C111.74 63.143 112.319 63.7222 113.034 63.7222Z" fill="black"/>
<path d="M129.019 63.7222C129.733 63.7222 130.312 63.143 130.312 62.4286C130.312 61.7142 129.733 61.135 129.019 61.135C128.304 61.135 127.725 61.7142 127.725 62.4286C127.725 63.143 128.304 63.7222 129.019 63.7222Z" fill="black"/>
<path d="M125.261 56.0232C123.752 59.7808 125.508 65.6944 126.093 69.606C126.462 72.2548 127.048 77.3984 122.458 75.766" stroke="black" stroke-width="2.6488" stroke-miterlimit="10" stroke-linecap="round"/>
<path d="M86.3301 500.62H114.481" stroke="black" stroke-width="2.6488" stroke-miterlimit="10"/>
<path d="M137.335 500.62H165.486" stroke="black" stroke-width="2.6488" stroke-miterlimit="10"/>
<path d="M165.425 523.72H94.3384V529.572H165.425V523.72Z" stroke="black" stroke-width="2.6488" stroke-linecap="round" stroke-linejoin="round"/>
<path d="M94.2455 523.72H44.4419V529.572H94.2455V523.72Z" stroke="black" stroke-width="2.6488" stroke-linecap="round" stroke-linejoin="round"/>
<path d="M95.6935 230.196C95.1063 229.121 94.7558 227.933 94.6655 226.711C94.5752 225.489 94.7471 224.262 95.1699 223.112C96.1359 220.797 97.8203 218.854 99.9747 217.568" stroke="black" stroke-width="2.6488" stroke-linecap="round" stroke-linejoin="round"/>
<path d="M92.9827 223.668C92.4307 222.641 92.1016 221.51 92.0167 220.348C91.9317 219.185 92.093 218.018 92.4898 216.923C93.3843 214.722 94.9603 212.865 96.9867 211.625" stroke="black" stroke-width="2.6488" stroke-linecap="round" stroke-linejoin="round"/>
<path d="M34.1854 253.727C33.8466 248.861 40.5918 249.97 42.9018 251.048" stroke="black" stroke-width="2.6488" stroke-miterlimit="10"/>
<path d="M37.789 249.724C37.4194 246.644 40.869 246.828 42.563 247.106" stroke="black" stroke-width="2.6488" stroke-miterlimit="10"/>
<path d="M135.518 200.567C138.525 200.493 141.527 200.267 144.511 199.89" stroke="black" stroke-width="2.6488" stroke-miterlimit="10"/>
<path d="M162.498 191.605C157.386 195.116 146.051 197.241 146.051 197.241C138.474 208.052 145.004 221.45 145.066 221.45C151.491 221.123 157.889 220.393 164.223 219.263" stroke="white" stroke-width="2.6488" stroke-linejoin="round"/>
<path d="M136.195 500.99C133.639 501.637 118.824 509.706 105.395 511.277C98.927 512.047 94.1838 515.404 94.307 524.891" stroke="white" stroke-width="2.6488" stroke-linejoin="round"/>
<path d="M54.6984 16.7215V8.18994H15.4284V16.7215C15.5257 19.6628 16.4193 22.5226 18.014 24.996C19.6087 27.4694 21.8447 29.4637 24.4836 30.7663C25.2125 31.1851 25.8341 31.7676 26.2991 32.4678C26.7642 33.1681 27.06 33.9669 27.1632 34.8011C27.0968 35.6382 26.819 36.4447 26.3557 37.1451C25.8924 37.8454 25.2588 38.4166 24.5144 38.8051C21.8561 40.0856 19.5938 42.0614 17.9671 44.5232C16.3404 46.9849 15.41 49.8408 15.2744 52.7883V61.5663H54.6984V52.9423C54.5574 50.0002 53.6245 47.1507 51.9981 44.6948C50.3717 42.239 48.1123 40.268 45.4584 38.9899C44.7022 38.605 44.0582 38.0313 43.5887 37.3245C43.1193 36.6176 42.8403 35.8015 42.7788 34.9551C42.7788 32.6451 45.4276 30.9511 45.4276 30.9511C48.1298 29.6582 50.424 27.6467 52.0592 25.1369C53.6944 22.6271 54.6075 19.7157 54.6984 16.7215V16.7215Z" stroke="black" stroke-width="2.6488" stroke-miterlimit="10"/>
<path d="M54.1748 61.4434H16.0444C14.3433 61.4434 12.9644 62.8223 12.9644 64.5234V64.5542C12.9644 66.2552 14.3433 67.6342 16.0444 67.6342H54.1748C55.8758 67.6342 57.2548 66.2552 57.2548 64.5542V64.5234C57.2548 62.8223 55.8758 61.4434 54.1748 61.4434Z" stroke="black" stroke-width="2.6488" stroke-miterlimit="10"/>
<path d="M54.1748 2H16.0444C14.3433 2 12.9644 3.37896 12.9644 5.08V5.1108C12.9644 6.81184 14.3433 8.1908 16.0444 8.1908H54.1748C55.8758 8.1908 57.2548 6.81184 57.2548 5.1108V5.08C57.2548 3.37896 55.8758 2 54.1748 2Z" stroke="black" stroke-width="2.6488" stroke-miterlimit="10"/>
<path d="M38.5598 39.6372V34.586C38.5598 32.0912 41.6397 29.5348 43.6725 28.1796C46.6213 26.2787 48.8536 23.4505 50.0174 20.1408C50.2238 19.5465 50.285 18.9115 50.1959 18.2887C50.1068 17.666 49.8699 17.0736 49.5051 16.5611C49.1403 16.0485 48.6582 15.6308 48.0989 15.3426C47.5397 15.0545 46.9196 14.9044 46.2905 14.9048H23.8989C23.2699 14.9044 22.6498 15.0545 22.0906 15.3426C21.5313 15.6308 21.0492 16.0485 20.6844 16.5611C20.3196 17.0736 20.0827 17.666 19.9936 18.2887C19.9045 18.9115 19.9657 19.5465 20.1722 20.1408C21.336 23.4505 23.5682 26.2787 26.5169 28.1796C28.6113 29.5348 32.1533 31.8756 32.1533 34.3396V39.6988C32.1533 41.6392 29.0733 43.4564 27.2561 44.442C25.0311 45.7332 23.1535 47.5462 21.7853 49.7247C20.417 51.9032 19.5991 54.3818 19.4022 56.9468C19.3938 57.0934 19.4154 57.2403 19.4658 57.3783C19.5162 57.5162 19.5943 57.6425 19.6952 57.7492C19.7962 57.8559 19.9179 57.9409 20.0529 57.9988C20.1878 58.0568 20.3332 58.0866 20.4801 58.0864H49.9557C50.0905 58.0866 50.2239 58.0593 50.3477 58.0059C50.4715 57.9526 50.583 57.8744 50.6754 57.7763C50.7678 57.6781 50.839 57.5621 50.8848 57.4353C50.9305 57.3085 50.9498 57.1737 50.9413 57.0392C50.7669 54.456 49.9591 51.9556 48.5894 49.7586C47.2196 47.5616 45.33 45.7357 43.0874 44.442C41.3626 43.4872 38.5598 41.5776 38.5598 39.6372Z" fill="black"/>
</svg>
